<svg width="50" height="50" viewBox="0 0 50 50" fill="none" xmlns="http://www.w3.org/2000/svg">
<path d="M25 18.4907C21.416 18.4907 18.4912 21.4155 18.4912 24.9995C18.4912 28.5835 21.416 31.5083 25 31.5083C28.584 31.5083 31.5088 28.5835 31.5088 24.9995C31.5088 21.4155 28.584 18.4907 25 18.4907ZM44.5215 24.9995C44.5215 22.3042 44.5459 19.6333 44.3945 16.9429C44.2432 13.8179 43.5303 11.0444 41.2451 8.75926C38.9551 6.46923 36.1865 5.76122 33.0615 5.60985C30.3662 5.45848 27.6953 5.4829 25.0049 5.4829C22.3096 5.4829 19.6387 5.45848 16.9482 5.60985C13.8232 5.76122 11.0498 6.47411 8.76464 8.75926C6.4746 11.0493 5.76659 13.8179 5.61522 16.9429C5.46385 19.6382 5.48827 22.3091 5.48827 24.9995C5.48827 27.6899 5.46385 30.3657 5.61522 33.0561C5.76659 36.1811 6.47948 38.9546 8.76464 41.2397C11.0547 43.5298 13.8232 44.2378 16.9482 44.3891C19.6435 44.5405 22.3144 44.5161 25.0049 44.5161C27.7002 44.5161 30.3711 44.5405 33.0615 44.3891C36.1865 44.2378 38.9599 43.5249 41.2451 41.2397C43.5351 38.9497 44.2432 36.1811 44.3945 33.0561C44.5508 30.3657 44.5215 27.6948 44.5215 24.9995ZM25 35.0141C19.458 35.0141 14.9853 30.5415 14.9853 24.9995C14.9853 19.4575 19.458 14.9849 25 14.9849C30.542 14.9849 35.0146 19.4575 35.0146 24.9995C35.0146 30.5415 30.542 35.0141 25 35.0141ZM35.4248 16.9136C34.1308 16.9136 33.0859 15.8686 33.0859 14.5747C33.0859 13.2807 34.1308 12.2358 35.4248 12.2358C36.7187 12.2358 37.7637 13.2807 37.7637 14.5747C37.764 14.8819 37.7038 15.1863 37.5864 15.4702C37.469 15.7541 37.2967 16.0121 37.0795 16.2294C36.8622 16.4466 36.6042 16.6189 36.3203 16.7363C36.0364 16.8537 35.732 16.9139 35.4248 16.9136Z" fill="black"/>
</svg>
