<svg width="50" height="50" viewBox="0 0 50 50" fill="none" xmlns="http://www.w3.org/2000/svg">
<path d="M49.2563 10.2851C47.5167 11.056 45.648 11.5768 43.6834 11.8122C45.7105 10.5993 47.227 8.69027 47.9501 6.44138C46.0456 7.57261 43.9612 8.36887 41.7876 8.79555C40.3259 7.23485 38.3898 6.20039 36.2799 5.85278C34.17 5.50517 32.0044 5.86386 30.1193 6.87316C28.2342 7.88245 26.735 9.48588 25.8546 11.4345C24.9741 13.3831 24.7616 15.5679 25.2501 17.6497C21.3911 17.456 17.616 16.4529 14.1697 14.7058C10.7234 12.9586 7.68307 10.5063 5.2459 7.50805C4.41256 8.94555 3.9334 10.6122 3.9334 12.3872C3.93247 13.9851 4.32597 15.5586 5.07898 16.9679C5.83199 18.3773 6.92124 19.579 8.25007 20.4664C6.70897 20.4173 5.20188 20.0009 3.85423 19.2518V19.3768C3.85408 21.6179 4.6293 23.7901 6.04836 25.5247C7.46743 27.2593 9.44292 28.4496 11.6396 28.8935C10.21 29.2804 8.71119 29.3374 7.25632 29.0601C7.8761 30.9885 9.08339 32.6748 10.7092 33.8829C12.3349 35.091 14.2978 35.7605 16.323 35.7976C12.8851 38.4964 8.63941 39.9603 4.26882 39.9539C3.49461 39.9541 2.72106 39.9089 1.95215 39.8185C6.38856 42.6709 11.5529 44.1848 16.8271 44.1789C34.6813 44.1789 44.4417 29.3914 44.4417 16.5664C44.4417 16.1497 44.4313 15.7289 44.4126 15.3122C46.3111 13.9392 47.9499 12.2391 49.2522 10.2914L49.2563 10.2851Z" fill="black"/>
</svg>
