<svg width="50" height="50" viewBox="0 0 50 50" fill="none" xmlns="http://www.w3.org/2000/svg">
<path d="M42.0001 14.2497C36.0001 4.99969 23.7501 2.2497 14.2501 7.99969C5.00006 13.7497 2.00006 26.2497 8.00006 35.4997L8.50006 36.2497L6.50006 43.7497L14.0001 41.7497L14.7501 42.2497C18.0001 43.9997 21.5001 44.9997 25.0001 44.9997C28.7501 44.9997 32.5001 43.9997 35.7501 41.9997C45.0001 35.9997 47.7501 23.7497 42.0001 14.2497ZM36.7501 33.4997C35.7501 34.9997 34.5001 35.9997 32.7501 36.2497C31.7501 36.2497 30.5001 36.7497 25.5001 34.7497C21.2501 32.7497 17.7501 29.4997 15.2501 25.7497C13.7501 23.9997 13.0001 21.7497 12.7501 19.4997C12.7501 17.4997 13.5001 15.7497 14.7501 14.4997C15.2501 13.9997 15.7501 13.7497 16.2501 13.7497H17.5001C18.0001 13.7497 18.5001 13.7497 18.7501 14.7497C19.2501 15.9997 20.5001 18.9997 20.5001 19.2497C20.7501 19.4997 20.7501 19.9997 20.5001 20.2497C20.7501 20.7497 20.5001 21.2497 20.2501 21.4997C20.0001 21.7497 19.7501 22.2497 19.5001 22.4997C19.0001 22.7497 18.7501 23.2497 19.0001 23.7497C20.0001 25.2497 21.2501 26.7497 22.5001 27.9997C24.0001 29.2497 25.5001 30.2497 27.2501 30.9997C27.7501 31.2497 28.2501 31.2497 28.5001 30.7497C28.7501 30.2497 30.0001 28.9997 30.5001 28.4997C31.0001 27.9997 31.2501 27.9997 31.7501 28.2497L35.7501 30.2497C36.2501 30.4997 36.7501 30.7497 37.0001 30.9997C37.2501 31.7497 37.2501 32.7497 36.7501 33.4997Z" fill="black"/>
</svg>
