<svg width="856" height="804" viewBox="0 0 856 804" fill="none" xmlns="http://www.w3.org/2000/svg">
<path d="M104.396 328.699L40.3378 364.514L169.821 437.023L2 533.549L211.865 655.388L329.599 587.048L524.975 470.798L486.904 450.584L630.012 364.514L716.895 412.782" stroke="#CB7B31" stroke-width="1.59601"/>
<path d="M523.863 548.52L630.829 610.115L967.554 414.679L1035.64 422.435" stroke="#CB8D31" stroke-width="1.59601"/>
<path opacity="0.491164" d="M468.036 13.0075L672.326 19.092L318.488 223.826L371.118 253.289L236.614 330.626L404.815 428.245" stroke="#CB8D31" stroke-width="1.59601"/>
<path fill-rule="evenodd" clip-rule="evenodd" d="M104.595 185.058L166.389 220.936L105.519 257.353L105.151 328.699L43.4963 292.631L44.0129 220.776L104.595 185.058ZM166.389 220.968V293.701L105.151 328.699L105.519 257.375L166.389 220.968Z" stroke="#C45B20" stroke-width="0.798007"/>
<path opacity="0.10612" d="M105.741 256.878V328.699L678.71 0H551.062L105.741 256.878Z" fill="#C46F20"/>
<path fill-rule="evenodd" clip-rule="evenodd" d="M597.512 625.557L659.306 661.435L598.436 697.853L598.068 769.199L536.413 733.131L536.93 661.275L597.512 625.557ZM659.306 661.468V734.201L598.068 769.199L598.436 697.874L659.306 661.468Z" stroke="#C45B20" stroke-width="0.798007"/>
<path opacity="0.10612" d="M598.658 697.378V769.199L993.124 543.017L990.83 471.337L598.658 697.378Z" fill="#C46F20"/>
<path opacity="0.846354" d="M628.914 716.804V675.563L593.163 696.184V737.489L628.914 716.804Z" fill="url(#paint0_linear)"/>
<path opacity="0.76895" d="M557.413 716.804V675.563L593.163 696.184V737.489L557.413 716.804Z" fill="url(#paint1_linear)"/>
<path d="M628.914 675.563L593.163 654.879L557.413 675.563L593.163 696.184L628.914 675.563Z" fill="#C45B20"/>
<path d="M593.163 696.184L557.413 675.563" stroke="#EFA26A" stroke-width="0.798007"/>
<path d="M411.75 601.512L303.646 664.455L541.452 802.098L597.313 769.199" stroke="#CB8D31" stroke-width="1.59601"/>
<path d="M639.968 463.676L425.463 339.826L210.959 463.676L425.463 587.527L639.968 463.676Z" fill="#C45B20"/>
<path d="M425.463 587.527V608.211L210.959 484.361V463.676L425.463 587.527Z" fill="#B4470A"/>
<path d="M639.968 463.676L425.463 587.527V608.211L639.968 484.361V463.676Z" fill="#854103"/>
<path d="M425.463 587.527L210.959 463.676" stroke="#F4A368" stroke-width="0.798007"/>
<path d="M353.962 463.676L496.965 546.286L568.466 504.917L425.463 422.435L353.962 463.676Z" fill="url(#paint2_linear)"/>
<path d="M496.965 442.481L425.463 401.113L353.962 442.481L425.463 483.722L496.965 442.481Z" fill="#552900"/>
<path d="M426.22 400.602V318.12L354.719 359.361V441.971L426.22 400.602Z" fill="url(#paint3_linear)"/>
<path d="M354.719 443.694V361.212L426.22 402.453V485.063L354.719 443.694Z" fill="url(#paint4_linear)"/>
<path d="M424.943 400.602V318.12L496.445 359.361V441.971L424.943 400.602Z" fill="#753F00"/>
<path opacity="0.846354" d="M461.333 399.198V357.957L425.582 378.577V419.882L461.333 399.198Z" fill="url(#paint5_linear)"/>
<path opacity="0.76895" d="M389.831 399.198V357.957L425.582 378.577V419.882L389.831 399.198Z" fill="url(#paint6_linear)"/>
<path d="M461.333 357.957L425.582 337.272L389.831 357.957L425.582 378.577L461.333 357.957Z" fill="#C45B20"/>
<path d="M425.582 378.577L389.831 357.957" stroke="#EFA26A" stroke-width="0.798007"/>
<path opacity="0.487351" d="M471.062 378.295L474.214 195.227H381.968L378.655 376.808L426.394 401.113L471.062 378.295Z" fill="url(#paint7_linear)"/>
<path opacity="0.633301" d="M431.328 314.13C431.328 313.689 430.97 313.332 430.53 313.332C430.089 313.332 429.732 313.689 429.732 314.13V333.282C429.732 333.723 430.089 334.08 430.53 334.08C430.97 334.08 431.328 333.723 431.328 333.282V314.13Z" fill="url(#paint8_linear)"/>
<path d="M430.53 334.878C431.411 334.878 432.126 334.164 432.126 333.282C432.126 332.401 431.411 331.686 430.53 331.686C429.648 331.686 428.934 332.401 428.934 333.282C428.934 334.164 429.648 334.878 430.53 334.878Z" fill="black"/>
<path opacity="0.818173" d="M425.742 298.17C426.623 298.17 427.338 297.455 427.338 296.574C427.338 295.692 426.623 294.978 425.742 294.978C424.86 294.978 424.146 295.692 424.146 296.574C424.146 297.455 424.86 298.17 425.742 298.17Z" fill="black"/>
<path opacity="0.633301" d="M420.156 331.686C420.156 331.245 419.798 330.888 419.358 330.888C418.917 330.888 418.56 331.245 418.56 331.686V339.666C418.56 340.107 418.917 340.464 419.358 340.464C419.798 340.464 420.156 340.107 420.156 339.666V331.686Z" fill="url(#paint9_linear)"/>
<path d="M419.357 333.282C420.239 333.282 420.954 332.568 420.954 331.686C420.954 330.805 420.239 330.09 419.357 330.09C418.476 330.09 417.761 330.805 417.761 331.686C417.761 332.568 418.476 333.282 419.357 333.282Z" fill="black"/>
<path opacity="0.633301" d="M431.328 344.454C431.328 344.014 430.97 343.656 430.53 343.656C430.089 343.656 429.732 344.014 429.732 344.454V357.222C429.732 357.663 430.089 358.02 430.53 358.02C430.97 358.02 431.328 357.663 431.328 357.222V344.454Z" fill="url(#paint10_linear)"/>
<path d="M430.53 346.05C431.411 346.05 432.126 345.336 432.126 344.454C432.126 343.573 431.411 342.858 430.53 342.858C429.648 342.858 428.934 343.573 428.934 344.454C428.934 345.336 429.648 346.05 430.53 346.05Z" fill="black"/>
<path opacity="0.633301" d="M426.54 296.574C426.54 296.133 426.182 295.776 425.742 295.776C425.301 295.776 424.944 296.133 424.944 296.574V357.222C424.944 357.663 425.301 358.02 425.742 358.02C426.182 358.02 426.54 357.663 426.54 357.222V296.574Z" fill="url(#paint11_linear)"/>
<path opacity="0.633301" d="M437.712 331.686C437.712 331.245 437.354 330.888 436.914 330.888C436.473 330.888 436.116 331.245 436.116 331.686V368.394C436.116 368.835 436.473 369.192 436.914 369.192C437.354 369.192 437.712 368.835 437.712 368.394V331.686Z" fill="url(#paint12_linear)"/>
<path d="M425.742 358.818C426.623 358.818 427.338 358.104 427.338 357.222C427.338 356.341 426.623 355.626 425.742 355.626C424.86 355.626 424.146 356.341 424.146 357.222C424.146 358.104 424.86 358.818 425.742 358.818Z" fill="black"/>
<path d="M436.914 333.282C437.795 333.282 438.51 332.568 438.51 331.686C438.51 330.805 437.795 330.09 436.914 330.09C436.032 330.09 435.318 330.805 435.318 331.686C435.318 332.568 436.032 333.282 436.914 333.282Z" fill="black"/>
<path opacity="0.633301" d="M413.771 312.534C413.771 312.093 413.414 311.736 412.973 311.736C412.533 311.736 412.175 312.093 412.175 312.534V360.414C412.175 360.855 412.533 361.212 412.973 361.212C413.414 361.212 413.771 360.855 413.771 360.414V312.534Z" fill="url(#paint13_linear)"/>
<path d="M412.973 314.13C413.855 314.13 414.569 313.415 414.569 312.534C414.569 311.653 413.855 310.938 412.973 310.938C412.092 310.938 411.377 311.653 411.377 312.534C411.377 313.415 412.092 314.13 412.973 314.13Z" fill="black"/>
<path opacity="0.846354" d="M461.333 297.053V255.812L425.582 276.432V317.737L461.333 297.053Z" fill="url(#paint14_linear)"/>
<path opacity="0.76895" d="M389.831 297.053V255.812L425.582 276.432V317.737L389.831 297.053Z" fill="url(#paint15_linear)"/>
<path d="M461.333 255.812L425.582 235.127L389.831 255.812L425.582 276.432L461.333 255.812Z" fill="#D26A4C"/>
<path d="M425.582 276.432L389.831 255.812" stroke="#EFA26A" stroke-width="0.798007"/>
<path opacity="0.657622" d="M496.965 442.992V360.51L425.463 401.751V484.361L496.965 442.992Z" fill="url(#paint16_linear)"/>
<path d="M425.463 401.751L353.962 360.51" stroke="#DFA54D" stroke-width="0.798007"/>
<path d="M425.463 401.751L353.962 360.51" stroke="#DFA54D" stroke-width="0.798007"/>
<path d="M425.463 608.211L468.875 633.237L681.719 508.365L639.968 484.361L425.463 608.211Z" fill="url(#paint17_linear)"/>
<path d="M496.445 360.51L425.463 401.751" stroke="#B8701B" stroke-width="1.59601"/>
<g opacity="0.4">
<path opacity="0.4" fill-rule="evenodd" clip-rule="evenodd" d="M780.503 305.352L717.827 341.628V413.979L781.074 450.589L781.451 378.45L843.912 341.628L780.503 305.352Z" stroke="url(#paint18_linear)" stroke-width="1.59601"/>
<path opacity="0.4" fill-rule="evenodd" clip-rule="evenodd" d="M782.041 378.736L781.667 450.589L843.912 414.487V342.06L782.041 378.736Z" stroke="url(#paint19_linear)" stroke-width="1.59601"/>
</g>
<path opacity="0.846354" d="M812.456 399.198V357.957L776.705 378.577V419.882L812.456 399.198Z" fill="url(#paint20_linear)"/>
<path opacity="0.76895" d="M740.954 399.198V357.957L776.705 378.577V419.882L740.954 399.198Z" fill="url(#paint21_linear)"/>
<path d="M812.455 357.957L776.705 337.272L740.954 357.957L776.705 378.577L812.455 357.957Z" fill="#C47920"/>
<path d="M776.705 378.577L740.954 357.957" stroke="#EF9A6A" stroke-width="0.798007"/>
<path opacity="0.846354" d="M140.534 277.901V236.66L104.783 257.28V298.585L140.534 277.901Z" fill="url(#paint22_linear)"/>
<path opacity="0.76895" d="M69.0325 277.901V236.66L104.783 257.28V298.585L69.0325 277.901Z" fill="url(#paint23_linear)"/>
<path d="M140.534 236.66L104.783 215.975L69.0325 236.66L104.783 257.28L140.534 236.66Z" fill="#C45B20"/>
<path d="M104.783 257.28L69.0325 236.66" stroke="#EFA26A" stroke-width="0.798007"/>
<path opacity="0.1373" d="M780.854 304.474L781.169 450.589L986.536 333.365L986.74 185.651L780.854 304.474Z" fill="#F15629"/>
<g opacity="0.15">
<path opacity="0.15" d="M639.929 359.47C646.406 363.163 646.434 369.161 640.014 372.868C633.594 376.576 623.135 376.576 616.658 372.868C610.181 369.161 610.153 363.163 616.587 359.47C623.021 355.776 633.466 355.762 639.929 359.47Z" fill="#C46F20"/>
</g>
<g opacity="0.3">
<path opacity="0.3" d="M636.101 362.413C640.31 364.75 640.324 368.54 636.101 370.878C631.331 373.216 625.688 373.216 620.918 370.878C616.724 368.54 616.695 364.75 620.918 362.413C625.688 360.075 631.331 360.075 636.101 362.413Z" fill="#C46F20"/>
</g>
<path d="M634.272 318.546H622.294V366.427H634.272V318.546Z" fill="url(#paint24_linear)"/>
<path d="M632.829 364.107C635.263 365.44 635.277 367.532 632.829 368.851C630.068 370.157 626.803 370.157 624.041 368.851C621.608 367.519 621.593 365.413 624.041 364.107C626.803 362.801 630.068 362.801 632.829 364.107Z" fill="#F9F9F9"/>
<g opacity="0.15">
<path opacity="0.15" d="M177.085 428.098C183.562 431.792 183.591 437.789 177.17 441.497C170.75 445.205 160.291 445.205 153.814 441.497C147.337 437.789 147.309 431.792 153.743 428.098C160.177 424.404 170.623 424.39 177.085 428.098Z" fill="#C45B20"/>
</g>
<g opacity="0.3">
<path opacity="0.3" d="M173.257 431.041C177.466 433.379 177.48 437.169 173.257 439.506C168.487 441.844 162.844 441.844 158.074 439.506C153.88 437.169 153.851 433.379 158.074 431.041C162.844 428.703 168.487 428.703 173.257 431.041Z" fill="#C45B20"/>
</g>
<path d="M171.429 387.175H159.45V435.055H171.429V387.175Z" fill="url(#paint25_linear)"/>
<path d="M169.986 432.736C172.419 434.068 172.433 436.161 169.986 437.48C167.224 438.786 163.959 438.786 161.197 437.48C158.764 436.147 158.75 434.042 161.197 432.736C163.959 431.43 167.224 431.43 169.986 432.736Z" fill="#F9F9F9"/>
<g opacity="0.15">
<path opacity="0.15" d="M639.929 598.872C646.406 602.565 646.434 608.563 640.014 612.27C633.594 615.978 623.135 615.978 616.658 612.27C610.181 608.563 610.153 602.565 616.587 598.872C623.021 595.178 633.466 595.164 639.929 598.872Z" fill="#C45B20"/>
</g>
<g opacity="0.3">
<path opacity="0.3" d="M636.101 601.815C640.31 604.152 640.324 607.942 636.101 610.28C631.331 612.618 625.688 612.618 620.918 610.28C616.724 607.942 616.695 604.152 620.918 601.815C625.688 599.477 631.331 599.477 636.101 601.815Z" fill="#C45B20"/>
</g>
<path d="M634.272 557.948H622.294V605.829H634.272V557.948Z" fill="url(#paint26_linear)"/>
<path d="M632.829 603.509C635.263 604.842 635.277 606.934 632.829 608.253C630.068 609.559 626.803 609.559 624.041 608.253C621.608 606.921 621.593 604.815 624.041 603.509C626.803 602.203 630.068 602.203 632.829 603.509Z" fill="#F9F9F9"/>
<g opacity="0.15">
<path opacity="0.15" d="M220.178 646.752C226.655 650.446 226.683 656.443 220.263 660.151C213.843 663.859 203.383 663.859 196.906 660.151C190.429 656.443 190.401 650.446 196.835 646.752C203.27 643.058 213.715 643.044 220.178 646.752Z" fill="#C45B20"/>
</g>
<g opacity="0.3">
<path opacity="0.3" d="M216.349 649.695C220.558 652.033 220.572 655.823 216.349 658.16C211.58 660.498 205.936 660.498 201.167 658.16C196.972 655.823 196.943 652.033 201.167 649.695C205.936 647.357 211.58 647.357 216.349 649.695Z" fill="#C45B20"/>
</g>
<path d="M214.521 605.829H202.542V653.709H214.521V605.829Z" fill="url(#paint27_linear)"/>
<path d="M213.078 651.389C215.511 652.722 215.525 654.814 213.078 656.134C210.316 657.44 207.051 657.44 204.29 656.134C201.856 654.801 201.842 652.695 204.29 651.389C207.051 650.083 210.316 650.083 213.078 651.389Z" fill="#F9F9F9"/>
<path d="M193.522 134.423V129.791L197.097 132.144V136.941L193.522 134.423Z" fill="#C45B20"/>
<path d="M254.17 171.14V166.499L257.745 168.86V173.649L254.17 171.14Z" fill="#C45B20"/>
<path d="M254.17 236.377V231.744L257.745 234.097V238.894L254.17 236.377Z" fill="#C45B20"/>
<path d="M195.309 134.259L255.79 169.244L256.409 234.6L231.06 219.935L195.309 199.251V134.259Z" fill="#EDBB6F" fill-opacity="0.2" stroke="#C45B20" stroke-width="0.893767"/>
<path d="M193.522 199.671V195.036L197.097 197.394V202.186L193.522 199.671Z" fill="#C45B20"/>
<path d="M685.094 584.499V579.866L688.669 582.22V587.016L685.094 584.499Z" fill="#C45B20"/>
<path d="M745.742 621.215V616.574L749.317 618.936V623.725L745.742 621.215Z" fill="#C45B20"/>
<path d="M745.742 686.452V681.82L749.317 684.173V688.97L745.742 686.452Z" fill="#C45B20"/>
<path d="M685.094 649.747V645.111L688.669 647.47V652.261L685.094 649.747Z" fill="#C45B20"/>
<path d="M686.881 584.335L747.363 619.32L747.982 684.676L722.632 670.01L686.881 649.327V584.335Z" fill="#EDBB6F" fill-opacity="0.2" stroke="#C45B20" stroke-width="0.893767"/>
<path d="M416.963 99.3111V94.6782L420.538 97.0315V101.828L416.963 99.3111Z" fill="#C45B20"/>
<path d="M477.612 136.028V131.387L481.187 133.748V138.537L477.612 136.028Z" fill="#C45B20"/>
<path d="M477.612 201.264V196.632L481.187 198.985V203.782L477.612 201.264Z" fill="#C45B20"/>
<path d="M416.963 164.559V159.923L420.538 162.282V167.073L416.963 164.559Z" fill="#C45B20"/>
<path d="M418.751 99.147L479.232 134.132L479.851 199.488L454.502 184.822L418.751 164.139V99.147Z" fill="#EDBB6F" fill-opacity="0.2" stroke="#C45B20" stroke-width="0.893767"/>
<defs>
<linearGradient id="paint0_linear" x1="614.018" y1="721.989" x2="599.12" y2="696.185" gradientUnits="userSpaceOnUse">
<stop stop-color="#854903"/>
<stop offset="1" stop-color="#6E3704"/>
</linearGradient>
<linearGradient id="paint1_linear" x1="578.267" y1="721.989" x2="563.37" y2="696.185" gradientUnits="userSpaceOnUse">
<stop stop-color="#BB7917"/>
<stop offset="1" stop-color="#854903"/>
</linearGradient>
<linearGradient id="paint2_linear" x1="496.966" y1="504.989" x2="461.211" y2="443.062" gradientUnits="userSpaceOnUse">
<stop stop-color="#C46F20"/>
<stop offset="1" stop-color="#813E00"/>
</linearGradient>
<linearGradient id="paint3_linear" x1="396.428" y1="410.972" x2="366.633" y2="359.363" gradientUnits="userSpaceOnUse">
<stop/>
<stop offset="1" stop-color="#6E4A04"/>
</linearGradient>
<linearGradient id="paint4_linear" x1="396.428" y1="454.064" x2="366.633" y2="402.456" gradientUnits="userSpaceOnUse">
<stop stop-color="#BB7917"/>
<stop offset="1" stop-color="#854903"/>
</linearGradient>
<linearGradient id="paint5_linear" x1="446.436" y1="404.383" x2="431.539" y2="378.578" gradientUnits="userSpaceOnUse">
<stop stop-color="#854903"/>
<stop offset="1" stop-color="#6E3704"/>
</linearGradient>
<linearGradient id="paint6_linear" x1="410.686" y1="404.383" x2="395.788" y2="378.578" gradientUnits="userSpaceOnUse">
<stop stop-color="#BB7917"/>
<stop offset="1" stop-color="#854903"/>
</linearGradient>
<linearGradient id="paint7_linear" x1="425.639" y1="543.239" x2="425.639" y2="223.388" gradientUnits="userSpaceOnUse">
<stop stop-color="#C48220"/>
<stop offset="0.18391" stop-color="#C46F20"/>
<stop offset="0.516549" stop-color="white" stop-opacity="0.258577"/>
<stop offset="0.812607" stop-color="#C47920" stop-opacity="0.233337"/>
<stop offset="1" stop-color="#C46F20" stop-opacity="0"/>
</linearGradient>
<linearGradient id="paint8_linear" x1="430.53" y1="334.018" x2="430.53" y2="313.332" gradientUnits="userSpaceOnUse">
<stop stop-color="white" stop-opacity="0.262"/>
<stop offset="0.654" stop-color="white" stop-opacity="0.669"/>
<stop offset="0.860537" stop-color="white" stop-opacity="0.866583"/>
<stop offset="1" stop-color="white"/>
</linearGradient>
<linearGradient id="paint9_linear" x1="419.358" y1="340.435" x2="419.358" y2="330.888" gradientUnits="userSpaceOnUse">
<stop stop-color="white" stop-opacity="0.262"/>
<stop offset="0.654" stop-color="white" stop-opacity="0.669"/>
<stop offset="0.860537" stop-color="white" stop-opacity="0.866583"/>
<stop offset="1" stop-color="white"/>
</linearGradient>
<linearGradient id="paint10_linear" x1="430.53" y1="357.977" x2="430.53" y2="343.656" gradientUnits="userSpaceOnUse">
<stop stop-color="white" stop-opacity="0.262"/>
<stop offset="0.654" stop-color="white" stop-opacity="0.669"/>
<stop offset="0.860537" stop-color="white" stop-opacity="0.866583"/>
<stop offset="1" stop-color="white"/>
</linearGradient>
<linearGradient id="paint11_linear" x1="425.742" y1="357.834" x2="425.742" y2="295.776" gradientUnits="userSpaceOnUse">
<stop stop-color="white" stop-opacity="0.262"/>
<stop offset="0.654" stop-color="white" stop-opacity="0.669"/>
<stop offset="0.860537" stop-color="white" stop-opacity="0.866583"/>
<stop offset="1" stop-color="white"/>
</linearGradient>
<linearGradient id="paint12_linear" x1="436.914" y1="369.078" x2="436.914" y2="330.888" gradientUnits="userSpaceOnUse">
<stop stop-color="white" stop-opacity="0.262"/>
<stop offset="0.654" stop-color="white" stop-opacity="0.669"/>
<stop offset="0.860537" stop-color="white" stop-opacity="0.866583"/>
<stop offset="1" stop-color="white"/>
</linearGradient>
<linearGradient id="paint13_linear" x1="412.973" y1="361.064" x2="412.973" y2="311.736" gradientUnits="userSpaceOnUse">
<stop stop-color="white" stop-opacity="0.262"/>
<stop offset="0.654" stop-color="white" stop-opacity="0.669"/>
<stop offset="0.860537" stop-color="white" stop-opacity="0.866583"/>
<stop offset="1" stop-color="white"/>
</linearGradient>
<linearGradient id="paint14_linear" x1="446.436" y1="302.238" x2="431.539" y2="276.433" gradientUnits="userSpaceOnUse">
<stop stop-color="#855903"/>
<stop offset="1" stop-color="#6E3D04"/>
</linearGradient>
<linearGradient id="paint15_linear" x1="410.686" y1="302.238" x2="395.788" y2="276.433" gradientUnits="userSpaceOnUse">
<stop stop-color="#BB5217"/>
<stop offset="1" stop-color="#853203"/>
</linearGradient>
<linearGradient id="paint16_linear" x1="467.172" y1="453.362" x2="437.378" y2="401.754" gradientUnits="userSpaceOnUse">
<stop stop-color="#855103"/>
<stop offset="1" stop-color="#6E3D04"/>
</linearGradient>
<linearGradient id="paint17_linear" x1="553.591" y1="558.799" x2="546.809" y2="546.856" gradientUnits="userSpaceOnUse">
<stop stop-color="white" stop-opacity="0"/>
<stop offset="1" stop-color="#FBD9A7" stop-opacity="0.15"/>
</linearGradient>
<linearGradient id="paint18_linear" x1="717.317" y1="378.117" x2="844.921" y2="378.117" gradientUnits="userSpaceOnUse">
<stop offset="0.13" stop-color="#7D4400"/>
<stop offset="0.44" stop-color="#9E5F00"/>
<stop offset="0.79" stop-color="#BA7B00"/>
</linearGradient>
<linearGradient id="paint19_linear" x1="781.163" y1="396.325" x2="844.417" y2="396.325" gradientUnits="userSpaceOnUse">
<stop offset="0.13" stop-color="#7D3C00"/>
<stop offset="0.44" stop-color="#9E4C00"/>
<stop offset="0.79" stop-color="#BA4E00"/>
</linearGradient>
<linearGradient id="paint20_linear" x1="797.559" y1="404.383" x2="782.662" y2="378.578" gradientUnits="userSpaceOnUse">
<stop stop-color="#854903"/>
<stop offset="1" stop-color="#6E3704"/>
</linearGradient>
<linearGradient id="paint21_linear" x1="761.809" y1="404.383" x2="746.911" y2="378.578" gradientUnits="userSpaceOnUse">
<stop stop-color="#BB7917"/>
<stop offset="1" stop-color="#853203"/>
</linearGradient>
<linearGradient id="paint22_linear" x1="125.638" y1="283.086" x2="110.74" y2="257.281" gradientUnits="userSpaceOnUse">
<stop stop-color="#854903"/>
<stop offset="1" stop-color="#6E3704"/>
</linearGradient>
<linearGradient id="paint23_linear" x1="89.887" y1="283.086" x2="74.9896" y2="257.281" gradientUnits="userSpaceOnUse">
<stop stop-color="#BB7917"/>
<stop offset="1" stop-color="#854903"/>
</linearGradient>
<linearGradient id="paint24_linear" x1="628.283" y1="366.427" x2="628.283" y2="318.939" gradientUnits="userSpaceOnUse">
<stop stop-color="#B45C0A"/>
<stop offset="0.309306" stop-color="#EDAB6F" stop-opacity="0.316898"/>
<stop offset="0.777449" stop-color="#ED9C6F" stop-opacity="0.118908"/>
<stop offset="1" stop-color="#FBD9A7" stop-opacity="0"/>
</linearGradient>
<linearGradient id="paint25_linear" x1="165.439" y1="435.055" x2="165.439" y2="387.568" gradientUnits="userSpaceOnUse">
<stop stop-color="#812E00"/>
<stop offset="0.309306" stop-color="#EDB36F" stop-opacity="0.316898"/>
<stop offset="0.777449" stop-color="#EDAB6F" stop-opacity="0.118908"/>
<stop offset="1" stop-color="#FBC5A7" stop-opacity="0"/>
</linearGradient>
<linearGradient id="paint26_linear" x1="628.283" y1="605.829" x2="628.283" y2="558.341" gradientUnits="userSpaceOnUse">
<stop stop-color="#B4700A"/>
<stop offset="0.309306" stop-color="#EDAB6F" stop-opacity="0.316898"/>
<stop offset="0.777449" stop-color="#EDBB6F" stop-opacity="0.118908"/>
<stop offset="1" stop-color="#FBC5A7" stop-opacity="0"/>
</linearGradient>
<linearGradient id="paint27_linear" x1="208.532" y1="653.709" x2="208.532" y2="606.222" gradientUnits="userSpaceOnUse">
<stop stop-color="#B4470A"/>
<stop offset="0.309306" stop-color="#EDBB6F" stop-opacity="0.316898"/>
<stop offset="0.777449" stop-color="#ED9C6F" stop-opacity="0.118908"/>
<stop offset="1" stop-color="#FBD4A7" stop-opacity="0"/>
</linearGradient>
</defs>
</svg>
