<svg width="1024" height="1024" viewBox="0 0 1024 1024" fill="none" xmlns="http://www.w3.org/2000/svg">
<path d="M536.1 273H488C483.6 273 480 276.6 480 281V556.3C480 558.9 481.2 561.3 483.3 562.8L648.6 683.5C652.2 686.1 657.2 685.4 659.8 681.8L688.4 642.8C691.1 639.1 690.3 634.1 686.7 631.6L544.1 528.5V281C544.1 276.6 540.5 273 536.1 273ZM755.9 348.2L912.7 386.5C917.7 387.7 922.6 383.9 922.6 378.8L923.4 217.3C923.4 210.6 915.7 206.8 910.5 211L752.9 334.1C751.709 335.022 750.802 336.26 750.284 337.674C749.765 339.088 749.657 340.62 749.97 342.093C750.284 343.566 751.006 344.92 752.055 346.001C753.104 347.081 754.437 347.843 755.9 348.2ZM923.6 649.3L866.9 629.8C864.923 629.122 862.76 629.245 860.872 630.142C858.985 631.039 857.523 632.639 856.8 634.6C854.9 639.7 852.9 644.7 850.8 649.7C833 691.8 807.5 729.7 774.9 762.2C742.662 794.538 704.456 820.314 662.4 838.1C618.833 856.52 572.001 865.975 524.7 865.9C476.9 865.9 430.6 856.6 387 838.1C344.944 820.314 306.738 794.538 274.5 762.2C242 729.7 216.5 691.8 198.6 649.7C180.282 606.108 170.896 559.284 171 512C171 464.2 180.3 417.8 198.8 374.2C216.6 332.1 242.1 294.2 274.7 261.7C306.938 229.362 345.144 203.586 387.2 185.8C430.6 167.3 477 158 524.8 158C572.6 158 618.9 167.3 662.5 185.8C704.556 203.586 742.762 229.362 775 261.7C785.2 272 794.8 282.7 803.6 294L863.4 247.2C784.7 146.6 662.2 81.9001 524.6 82.0001C285 82.1001 92.6 276.7 95 516.4C97.4 751.9 288.9 942 524.8 942C710.3 942 868.3 824.4 928.5 659.7C930 655.5 927.8 650.8 923.6 649.3Z" fill="#FFC631" fill-opacity="0.1"/>
</svg>
