<svg width="590" height="589" viewBox="0 0 590 589" fill="none" xmlns="http://www.w3.org/2000/svg">
<path d="M589 294.5C589 457.148 457.148 589 294.5 589C131.852 589 0 457.148 0 294.5C0 131.852 131.852 0 294.5 0C457.148 0 589 131.852 589 294.5ZM73.625 294.5C73.625 416.486 172.514 515.375 294.5 515.375C416.486 515.375 515.375 416.486 515.375 294.5C515.375 172.514 416.486 73.625 294.5 73.625C172.514 73.625 73.625 172.514 73.625 294.5Z" fill="#F15629"/>
<path d="M589 294.5C589 457.148 457.148 589 294.5 589C131.852 589 0 457.148 0 294.5C0 131.852 131.852 0 294.5 0C457.148 0 589 131.852 589 294.5ZM73.625 294.5C73.625 416.486 172.514 515.375 294.5 515.375C416.486 515.375 515.375 416.486 515.375 294.5C515.375 172.514 416.486 73.625 294.5 73.625C172.514 73.625 73.625 172.514 73.625 294.5Z" fill="#F15629"/>
<path d="M295.5 589C217.394 589 142.487 557.972 87.257 502.743C32.0276 447.513 0.999998 372.606 1 294.5C1 216.394 32.0276 141.487 87.2571 86.257C142.487 31.0276 217.394 -9.31408e-07 295.5 0V73.625C236.92 73.625 180.74 96.8957 139.318 138.318C97.8957 179.74 74.625 235.92 74.625 294.5C74.625 353.08 97.8957 409.26 139.318 450.682C180.74 492.104 236.92 515.375 295.5 515.375V589Z" fill="#F4ECE9" fill-opacity="0.4"/>
<path d="M127.651 51.8239C158.237 30.7948 192.523 15.7372 228.703 7.44429L245.152 79.2082C218.017 85.4279 192.303 96.7211 169.363 112.493L127.651 51.8239Z" fill="#8D2E13"/>
<path d="M225.124 8.28815C249.133 2.46846 273.779 -0.307084 298.482 0.0269165L297.486 73.6452C278.96 73.3947 260.475 75.4763 242.468 79.8411L225.124 8.28815Z" fill="#BB3F1A"/>
<path d="M17.7605 193.775C39.0316 135.333 78.258 85.1258 129.818 50.3484L170.988 111.386C132.319 137.469 102.899 175.125 86.9454 218.956L17.7605 193.775Z" fill="#611E0B"/>
<path d="M540.534 283.894H532.422V287.482C532.769 287.101 533.254 286.789 533.878 286.546C534.502 286.303 535.178 286.182 535.906 286.182C537.206 286.182 538.281 286.477 539.13 287.066C539.997 287.655 540.629 288.418 541.028 289.354C541.427 290.29 541.626 291.304 541.626 292.396C541.626 294.424 541.054 296.036 539.91 297.232C538.766 298.411 537.154 299 535.074 299C533.687 299 532.483 298.766 531.46 298.298C530.437 297.813 529.649 297.145 529.094 296.296C528.539 295.447 528.236 294.467 528.184 293.358H532.526C532.63 293.895 532.881 294.346 533.28 294.71C533.679 295.057 534.225 295.23 534.918 295.23C535.733 295.23 536.339 294.97 536.738 294.45C537.137 293.93 537.336 293.237 537.336 292.37C537.336 291.521 537.128 290.871 536.712 290.42C536.296 289.969 535.689 289.744 534.892 289.744C534.303 289.744 533.817 289.891 533.436 290.186C533.055 290.463 532.803 290.836 532.682 291.304H528.392V279.994H540.534V283.894ZM544.08 289.25C544.08 286.269 544.652 283.92 545.796 282.204C546.957 280.488 548.821 279.63 551.386 279.63C553.951 279.63 555.806 280.488 556.95 282.204C558.111 283.92 558.692 286.269 558.692 289.25C558.692 292.266 558.111 294.632 556.95 296.348C555.806 298.064 553.951 298.922 551.386 298.922C548.821 298.922 546.957 298.064 545.796 296.348C544.652 294.632 544.08 292.266 544.08 289.25ZM554.324 289.25C554.324 287.499 554.133 286.156 553.752 285.22C553.371 284.267 552.582 283.79 551.386 283.79C550.19 283.79 549.401 284.267 549.02 285.22C548.639 286.156 548.448 287.499 548.448 289.25C548.448 290.429 548.517 291.408 548.656 292.188C548.795 292.951 549.072 293.575 549.488 294.06C549.921 294.528 550.554 294.762 551.386 294.762C552.218 294.762 552.842 294.528 553.258 294.06C553.691 293.575 553.977 292.951 554.116 292.188C554.255 291.408 554.324 290.429 554.324 289.25ZM560.677 284.804C560.677 283.4 561.076 282.317 561.873 281.554C562.688 280.791 563.736 280.41 565.019 280.41C566.302 280.41 567.342 280.791 568.139 281.554C568.936 282.317 569.335 283.4 569.335 284.804C569.335 286.208 568.936 287.291 568.139 288.054C567.342 288.817 566.302 289.198 565.019 289.198C563.736 289.198 562.688 288.817 561.873 288.054C561.076 287.291 560.677 286.208 560.677 284.804ZM578.331 280.696L568.321 299H564.031L574.041 280.696H578.331ZM564.993 283.01C564.161 283.01 563.745 283.608 563.745 284.804C563.745 285.983 564.161 286.572 564.993 286.572C565.392 286.572 565.704 286.425 565.929 286.13C566.154 285.835 566.267 285.393 566.267 284.804C566.267 283.608 565.842 283.01 564.993 283.01ZM573.053 294.892C573.053 293.488 573.452 292.405 574.249 291.642C575.046 290.879 576.086 290.498 577.369 290.498C578.652 290.498 579.692 290.879 580.489 291.642C581.286 292.405 581.685 293.488 581.685 294.892C581.685 296.296 581.286 297.379 580.489 298.142C579.692 298.905 578.652 299.286 577.369 299.286C576.086 299.286 575.046 298.905 574.249 298.142C573.452 297.379 573.053 296.296 573.053 294.892ZM577.343 293.098C576.944 293.098 576.632 293.245 576.407 293.54C576.199 293.835 576.095 294.285 576.095 294.892C576.095 296.071 576.511 296.66 577.343 296.66C577.742 296.66 578.054 296.513 578.279 296.218C578.504 295.923 578.617 295.481 578.617 294.892C578.617 294.303 578.504 293.861 578.279 293.566C578.054 293.254 577.742 293.098 577.343 293.098Z" fill="#D9D9D9"/>
<path d="M245.274 45.62V42.032L253.49 30.28H258.456V41.772H260.588V45.62H258.456V49H254.01V45.62H245.274ZM254.322 35.168L249.954 41.772H254.322V35.168ZM262.402 34.804C262.402 33.4 262.8 32.3167 263.598 31.554C264.412 30.7913 265.461 30.41 266.744 30.41C268.026 30.41 269.066 30.7913 269.864 31.554C270.661 32.3167 271.06 33.4 271.06 34.804C271.06 36.208 270.661 37.2913 269.864 38.054C269.066 38.8167 268.026 39.198 266.744 39.198C265.461 39.198 264.412 38.8167 263.598 38.054C262.8 37.2913 262.402 36.208 262.402 34.804ZM280.056 30.696L270.046 49H265.756L275.766 30.696H280.056ZM266.718 33.01C265.886 33.01 265.47 33.608 265.47 34.804C265.47 35.9827 265.886 36.572 266.718 36.572C267.116 36.572 267.428 36.4247 267.654 36.13C267.879 35.8353 267.992 35.3933 267.992 34.804C267.992 33.608 267.567 33.01 266.718 33.01ZM274.778 44.892C274.778 43.488 275.176 42.4047 275.974 41.642C276.771 40.8793 277.811 40.498 279.094 40.498C280.376 40.498 281.416 40.8793 282.214 41.642C283.011 42.4047 283.41 43.488 283.41 44.892C283.41 46.296 283.011 47.3793 282.214 48.142C281.416 48.9047 280.376 49.286 279.094 49.286C277.811 49.286 276.771 48.9047 275.974 48.142C275.176 47.3793 274.778 46.296 274.778 44.892ZM279.068 43.098C278.669 43.098 278.357 43.2453 278.132 43.54C277.924 43.8347 277.82 44.2853 277.82 44.892C277.82 46.0707 278.236 46.66 279.068 46.66C279.466 46.66 279.778 46.5127 280.004 46.218C280.229 45.9233 280.342 45.4813 280.342 44.892C280.342 44.3027 280.229 43.8607 280.004 43.566C279.778 43.254 279.466 43.098 279.068 43.098Z" fill="#D9D9D9"/>
<path d="M186.556 54.142C186.417 53.5007 186.175 53.024 185.828 52.712C185.481 52.3827 184.987 52.218 184.346 52.218C183.358 52.218 182.647 52.6513 182.214 53.518C181.781 54.3673 181.555 55.7193 181.538 57.574C181.919 56.9673 182.465 56.4907 183.176 56.144C183.904 55.7973 184.701 55.624 185.568 55.624C187.267 55.624 188.627 56.1613 189.65 57.236C190.69 58.3107 191.21 59.81 191.21 61.734C191.21 62.9993 190.95 64.1087 190.43 65.062C189.927 66.0153 189.182 66.7607 188.194 67.298C187.223 67.8353 186.071 68.104 184.736 68.104C182.067 68.104 180.212 67.272 179.172 65.608C178.132 63.9267 177.612 61.5173 177.612 58.38C177.612 55.0867 178.158 52.6427 179.25 51.048C180.359 49.436 182.127 48.63 184.554 48.63C185.854 48.63 186.946 48.89 187.83 49.41C188.731 49.9127 189.407 50.58 189.858 51.412C190.326 52.244 190.603 53.154 190.69 54.142H186.556ZM184.502 59.134C183.757 59.134 183.133 59.3593 182.63 59.81C182.145 60.2433 181.902 60.8673 181.902 61.682C181.902 62.514 182.127 63.164 182.578 63.632C183.046 64.1 183.705 64.334 184.554 64.334C185.317 64.334 185.915 64.1087 186.348 63.658C186.799 63.19 187.024 62.5573 187.024 61.76C187.024 60.9453 186.807 60.304 186.374 59.836C185.941 59.368 185.317 59.134 184.502 59.134ZM193.361 53.804C193.361 52.4 193.759 51.3167 194.557 50.554C195.371 49.7913 196.42 49.41 197.703 49.41C198.985 49.41 200.025 49.7913 200.823 50.554C201.62 51.3167 202.019 52.4 202.019 53.804C202.019 55.208 201.62 56.2913 200.823 57.054C200.025 57.8167 198.985 58.198 197.703 58.198C196.42 58.198 195.371 57.8167 194.557 57.054C193.759 56.2913 193.361 55.208 193.361 53.804ZM211.015 49.696L201.005 68H196.715L206.725 49.696H211.015ZM197.677 52.01C196.845 52.01 196.429 52.608 196.429 53.804C196.429 54.9827 196.845 55.572 197.677 55.572C198.075 55.572 198.387 55.4247 198.613 55.13C198.838 54.8353 198.951 54.3933 198.951 53.804C198.951 52.608 198.526 52.01 197.677 52.01ZM205.737 63.892C205.737 62.488 206.135 61.4047 206.933 60.642C207.73 59.8793 208.77 59.498 210.053 59.498C211.335 59.498 212.375 59.8793 213.173 60.642C213.97 61.4047 214.369 62.488 214.369 63.892C214.369 65.296 213.97 66.3793 213.173 67.142C212.375 67.9047 211.335 68.286 210.053 68.286C208.77 68.286 207.73 67.9047 206.933 67.142C206.135 66.3793 205.737 65.296 205.737 63.892ZM210.027 62.098C209.628 62.098 209.316 62.2453 209.091 62.54C208.883 62.8347 208.779 63.2853 208.779 63.892C208.779 65.0707 209.195 65.66 210.027 65.66C210.425 65.66 210.737 65.5127 210.963 65.218C211.188 64.9233 211.301 64.4813 211.301 63.892C211.301 63.3027 211.188 62.8607 210.963 62.566C210.737 62.254 210.425 62.098 210.027 62.098Z" fill="#D9D9D9"/>
<path d="M75.702 125.154V121.02H82.904V140H78.276V125.154H75.702ZM85.9454 130.25C85.9454 127.269 86.5174 124.92 87.6614 123.204C88.8227 121.488 90.6861 120.63 93.2514 120.63C95.8167 120.63 97.6714 121.488 98.8154 123.204C99.9767 124.92 100.557 127.269 100.557 130.25C100.557 133.266 99.9767 135.632 98.8154 137.348C97.6714 139.064 95.8167 139.922 93.2514 139.922C90.6861 139.922 88.8227 139.064 87.6614 137.348C86.5174 135.632 85.9454 133.266 85.9454 130.25ZM96.1894 130.25C96.1894 128.499 95.9987 127.156 95.6174 126.22C95.2361 125.267 94.4474 124.79 93.2514 124.79C92.0554 124.79 91.2667 125.267 90.8854 126.22C90.5041 127.156 90.3134 128.499 90.3134 130.25C90.3134 131.429 90.3827 132.408 90.5214 133.188C90.6601 133.951 90.9374 134.575 91.3534 135.06C91.7867 135.528 92.4194 135.762 93.2514 135.762C94.0834 135.762 94.7074 135.528 95.1234 135.06C95.5567 134.575 95.8427 133.951 95.9814 133.188C96.1201 132.408 96.1894 131.429 96.1894 130.25ZM102.542 125.804C102.542 124.4 102.941 123.317 103.738 122.554C104.553 121.791 105.602 121.41 106.884 121.41C108.167 121.41 109.207 121.791 110.004 122.554C110.802 123.317 111.2 124.4 111.2 125.804C111.2 127.208 110.802 128.291 110.004 129.054C109.207 129.817 108.167 130.198 106.884 130.198C105.602 130.198 104.553 129.817 103.738 129.054C102.941 128.291 102.542 127.208 102.542 125.804ZM120.196 121.696L110.186 140H105.896L115.906 121.696H120.196ZM106.858 124.01C106.026 124.01 105.61 124.608 105.61 125.804C105.61 126.983 106.026 127.572 106.858 127.572C107.257 127.572 107.569 127.425 107.794 127.13C108.02 126.835 108.132 126.393 108.132 125.804C108.132 124.608 107.708 124.01 106.858 124.01ZM114.918 135.892C114.918 134.488 115.317 133.405 116.114 132.642C116.912 131.879 117.952 131.498 119.234 131.498C120.517 131.498 121.557 131.879 122.354 132.642C123.152 133.405 123.55 134.488 123.55 135.892C123.55 137.296 123.152 138.379 122.354 139.142C121.557 139.905 120.517 140.286 119.234 140.286C117.952 140.286 116.912 139.905 116.114 139.142C115.317 138.379 114.918 137.296 114.918 135.892ZM119.208 134.098C118.81 134.098 118.498 134.245 118.272 134.54C118.064 134.835 117.96 135.285 117.96 135.892C117.96 137.071 118.376 137.66 119.208 137.66C119.607 137.66 119.919 137.513 120.144 137.218C120.37 136.923 120.482 136.481 120.482 135.892C120.482 135.303 120.37 134.861 120.144 134.566C119.919 134.254 119.607 134.098 119.208 134.098Z" fill="#D9D9D9"/>
<path d="M45.326 419.376C45.3953 417.521 46.002 416.091 47.146 415.086C48.29 414.081 49.8413 413.578 51.8 413.578C53.1 413.578 54.2093 413.803 55.128 414.254C56.064 414.705 56.766 415.32 57.234 416.1C57.7193 416.88 57.962 417.755 57.962 418.726C57.962 419.87 57.676 420.806 57.104 421.534C56.532 422.245 55.8647 422.73 55.102 422.99V423.094C56.09 423.423 56.87 423.969 57.442 424.732C58.014 425.495 58.3 426.474 58.3 427.67C58.3 428.745 58.0487 429.698 57.546 430.53C57.0607 431.345 56.3413 431.986 55.388 432.454C54.452 432.922 53.334 433.156 52.034 433.156C49.954 433.156 48.29 432.645 47.042 431.622C45.8113 430.599 45.1613 429.057 45.092 426.994H49.408C49.4253 427.757 49.642 428.363 50.058 428.814C50.474 429.247 51.0807 429.464 51.878 429.464C52.554 429.464 53.074 429.273 53.438 428.892C53.8193 428.493 54.01 427.973 54.01 427.332C54.01 426.5 53.7413 425.902 53.204 425.538C52.684 425.157 51.8433 424.966 50.682 424.966H49.85V421.352H50.682C51.566 421.352 52.2767 421.205 52.814 420.91C53.3687 420.598 53.646 420.052 53.646 419.272C53.646 418.648 53.4727 418.163 53.126 417.816C52.7793 417.469 52.3027 417.296 51.696 417.296C51.0373 417.296 50.5433 417.495 50.214 417.894C49.902 418.293 49.72 418.787 49.668 419.376H45.326ZM60.9122 423.25C60.9122 420.269 61.4842 417.92 62.6282 416.204C63.7895 414.488 65.6529 413.63 68.2182 413.63C70.7835 413.63 72.6382 414.488 73.7822 416.204C74.9435 417.92 75.5242 420.269 75.5242 423.25C75.5242 426.266 74.9435 428.632 73.7822 430.348C72.6382 432.064 70.7835 432.922 68.2182 432.922C65.6529 432.922 63.7895 432.064 62.6282 430.348C61.4842 428.632 60.9122 426.266 60.9122 423.25ZM71.1562 423.25C71.1562 421.499 70.9655 420.156 70.5842 419.22C70.2029 418.267 69.4142 417.79 68.2182 417.79C67.0222 417.79 66.2335 418.267 65.8522 419.22C65.4709 420.156 65.2802 421.499 65.2802 423.25C65.2802 424.429 65.3495 425.408 65.4882 426.188C65.6269 426.951 65.9042 427.575 66.3202 428.06C66.7535 428.528 67.3862 428.762 68.2182 428.762C69.0502 428.762 69.6742 428.528 70.0902 428.06C70.5235 427.575 70.8095 426.951 70.9482 426.188C71.0869 425.408 71.1562 424.429 71.1562 423.25ZM77.5091 418.804C77.5091 417.4 77.9078 416.317 78.7051 415.554C79.5198 414.791 80.5685 414.41 81.8511 414.41C83.1338 414.41 84.1738 414.791 84.9711 415.554C85.7685 416.317 86.1671 417.4 86.1671 418.804C86.1671 420.208 85.7685 421.291 84.9711 422.054C84.1738 422.817 83.1338 423.198 81.8511 423.198C80.5685 423.198 79.5198 422.817 78.7051 422.054C77.9078 421.291 77.5091 420.208 77.5091 418.804ZM95.1631 414.696L85.1531 433H80.8631L90.8731 414.696H95.1631ZM81.8251 417.01C80.9931 417.01 80.5771 417.608 80.5771 418.804C80.5771 419.983 80.9931 420.572 81.8251 420.572C82.2238 420.572 82.5358 420.425 82.7611 420.13C82.9865 419.835 83.0991 419.393 83.0991 418.804C83.0991 417.608 82.6745 417.01 81.8251 417.01ZM89.8851 428.892C89.8851 427.488 90.2838 426.405 91.0811 425.642C91.8785 424.879 92.9185 424.498 94.2011 424.498C95.4838 424.498 96.5238 424.879 97.3211 425.642C98.1185 426.405 98.5171 427.488 98.5171 428.892C98.5171 430.296 98.1185 431.379 97.3211 432.142C96.5238 432.905 95.4838 433.286 94.2011 433.286C92.9185 433.286 91.8785 432.905 91.0811 432.142C90.2838 431.379 89.8851 430.296 89.8851 428.892ZM94.1751 427.098C93.7765 427.098 93.4645 427.245 93.2391 427.54C93.0311 427.835 92.9271 428.285 92.9271 428.892C92.9271 430.071 93.3431 430.66 94.1751 430.66C94.5738 430.66 94.8858 430.513 95.1111 430.218C95.3365 429.923 95.4491 429.481 95.4491 428.892C95.4491 428.303 95.3365 427.861 95.1111 427.566C94.8858 427.254 94.5738 427.098 94.1751 427.098Z" fill="#D9D9D9"/>
</svg>
