<svg width="150" height="150" viewBox="0 0 150 150" fill="none" xmlns="http://www.w3.org/2000/svg">
<path d="M75 9.375C38.7598 9.375 9.375 38.7598 9.375 75C9.375 111.24 38.7598 140.625 75 140.625C111.24 140.625 140.625 111.24 140.625 75C140.625 38.7598 111.24 9.375 75 9.375ZM96.1084 76.0107L64.1162 99.2871C63.9408 99.4131 63.7341 99.4884 63.5187 99.5046C63.3033 99.5208 63.0877 99.4773 62.8954 99.3789C62.7032 99.2805 62.5417 99.131 62.4289 98.9468C62.3161 98.7626 62.2562 98.5509 62.2559 98.335V51.8115C62.2551 51.5951 62.3144 51.3827 62.427 51.1979C62.5396 51.0131 62.7012 50.8631 62.8938 50.7645C63.0865 50.6659 63.3026 50.6226 63.5184 50.6393C63.7342 50.6561 63.9411 50.7322 64.1162 50.8594L96.1084 74.1211C96.2595 74.228 96.3828 74.3696 96.4679 74.534C96.553 74.6984 96.5974 74.8808 96.5974 75.0659C96.5974 75.251 96.553 75.4334 96.4679 75.5979C96.3828 75.7623 96.2595 75.9039 96.1084 76.0107Z" fill="url(#paint0_linear)"/>
<defs>
<linearGradient id="paint0_linear" x1="75" y1="9.375" x2="75" y2="140.625" gradientUnits="userSpaceOnUse">
<stop stop-color="#FFC631" stop-opacity="0.63"/>
<stop offset="1" stop-color="#F15629"/>
</linearGradient>
</defs>
</svg>
